<svg data-name="Layer 1" xmlns="http://www.w3.org/2000/svg" xmlns:xlink="http://www.w3.org/1999/xlink" viewBox="0 0 325.66 276.12" width="406" height="306" class="illustration styles_illustrationTablet__1DWOa"><defs><linearGradient id="a" x1="194.98" y1="152.3" x2="184.68" y2="-42.24" gradientTransform="matrix(1 0 0 -1 0 352)" gradientUnits="userSpaceOnUse"><stop offset=".01"/><stop offset=".08" stop-opacity=".69"/><stop offset=".21" stop-opacity=".32"/><stop offset="1" stop-opacity="0"/></linearGradient><linearGradient id="b" x1="-469.76" y1="145.79" x2="-461.57" y2="35.41" gradientTransform="rotate(180 -155.205 160.625)" xlink:href="#a"/><linearGradient id="c" x1="359.19" y1="227.11" x2="160.97" y2="117.87" gradientTransform="matrix(1 0 0 -1 -38.61 321.25)" xlink:href="#a"/><linearGradient id="d" x1="63.43" y1="297.21" x2="221.86" y2="172.2" xlink:href="#a"/><linearGradient id="e" x1="68.1" y1="184.8" x2="239.66" y2="84.94" xlink:href="#a"/><linearGradient id="f" x1="108.91" y1="312.94" x2="112.28" y2="237.48" gradientTransform="matrix(1 0 0 -1 -38.61 321.25)" xlink:href="#a"/><linearGradient id="g" x1="98.39" y1="297.56" x2="101.24" y2="233.95" gradientTransform="matrix(1 0 0 -1 -38.61 321.25)" xlink:href="#a"/><linearGradient id="h" x1="108.91" y1="291.54" x2="112.28" y2="216.08" gradientTransform="matrix(1 0 0 -1 -38.61 321.25)" xlink:href="#a"/><linearGradient id="i" x1="98.39" y1="276.16" x2="101.24" y2="212.55" gradientTransform="matrix(1 0 0 -1 -38.61 321.25)" xlink:href="#a"/></defs><path d="M148 38.69c-18 9.66-31.16 27.31-37 46.89-3.45 11.59-4.53 23.81-8.47 35.24-11.19 32.51-43.48 53.66-57.25 85.18-7.67 17.55-9 38-2.54 56s20.9 33.27 39 39.63c11 3.9 23 4.48 34.69 4.86 22 .7 44.08.78 65.7-3.12 10.29-1.86 20.43-4.61 30.83-5.82 20.1-2.32 40.62 1.21 60.59-2 13.91-2.26 27.1-7.74 39.69-14.06 9.46-4.74 18.76-10 26.55-17.19 20.63-18.93 28.28-49.61 22.73-77.06s-23-51.55-44.89-68.95c-9.64-7.65-20.14-14.14-30.25-21.16a339.16 339.16 0 0 1-37-29.77C222.51 41.53 186.62 17.93 148 38.69Z" transform="translate(-38.61 -30.75)" fill="#68e1fd" opacity=".18" style="isolation:isolate"/><path d="m95.79 264.22-1.28-.08c-4.19-.33-7 1.81-10.53 3.88-4.2 2.47-9 3.83-13.09 6.42-.61.39-1.29 1.11-.92 1.73.25.41.82.47 1.31.48 10.35.2 20.67.24 31 .24h187.5a160.6 160.6 0 0 0 20.44-1.39 2 2 0 0 0 .38-3.95q-8.72-3-17.52-5.61c-14.91-4.48-31.65-2.52-47-2.2-16.16.35-32.35.75-48.5-.29-11.63-.75-20.76 0-32.43.38-8.51.25-16.93 1-25.47.87l-30.33-.37c-4.52.03-9.07.16-13.56-.11Z" transform="translate(-38.61 -30.75)" fill="url(#a)"/><path fill="#68e1fd" d="M116.87 234.61h76.19l-13.48-48.46h-51.34l-11.37 48.46z"/><path fill="url(#b)" d="M116.87 234.61h76.19l-13.48-48.46h-51.34l-11.37 48.46z"/><path d="M269.09 56.67v125a13.66 13.66 0 0 1-13.7 13.58H57.97A13.67 13.67 0 0 1 44.3 181.6V56.67A13.67 13.67 0 0 1 57.97 43h197.42a13.67 13.67 0 0 1 13.7 13.64Z" fill="#68e1fd"/><path d="M269.09 56.68v109.57H44.3V56.68A13.68 13.68 0 0 1 57.97 43h197.42a13.69 13.69 0 0 1 13.7 13.68Z" fill="#473f47"/><path d="M265.71 59.25v103.34h-218V59.25a13.2 13.2 0 0 1 13.24-13.09h191.49a13.2 13.2 0 0 1 13.27 13.09Z" fill="#fff"/><path d="M304.32 90v103.34h-218V90a13.2 13.2 0 0 1 13.24-13.09h191.49A13.2 13.2 0 0 1 304.32 90Z" transform="translate(-38.61 -30.75)" fill="#68e1fd" opacity=".18" style="isolation:isolate"/><rect x="172.21" y="122.86" width="77.49" height="63.4" rx="9.12" fill="url(#c)"/><path d="M153.66 73.75v42.72a5.94 5.94 0 0 1-5.94 5.94H82.91v-35a13.69 13.69 0 0 1 13.67-13.66Z" transform="translate(-38.61 -30.75)" fill="url(#d)"/><path d="M134.32 226c1.83-8.48-6.87-15.95-6.54-24.62.14-3.81 2-7.31 3.86-10.65a1.28 1.28 0 0 1 .55-.62c.38-.16.8.08 1.17.26 3.45 1.77 7.84-.74 9.5-4.24s1.35-7.57 1-11.42a13.54 13.54 0 0 1-13.3 2.12c-2.19-.85-4.26-2.31-6.61-2.3s-4.51 1.6-6.22 3.31c-5.87 5.87-9.17 13.93-10.68 22.1s-1.16 17.63-1 25.94Z" transform="translate(-38.61 -30.75)" fill="url(#e)"/><path fill="none" d="m231.66 103.08-30.25-16.49"/><path d="M109.11 94.84h104a7 7 0 0 1 7 7 7 7 0 0 1-7 7h-104v-14Z" fill="#68e1fd"/><path fill="#fff" d="M109.11 94.84h83.96v13.94h-83.96z"/><circle cx="205.52" cy="101.02" r="3.36" fill="none" stroke="#fff" stroke-miterlimit="10"/><path d="m208.6 106.49-1.38-2.57" fill="none" stroke="#fff" stroke-miterlimit="10"/><path d="M85.95 234.12a2.41 2.41 0 0 0 .64 1.86 2.09 2.09 0 0 0 .83.34 9.21 9.21 0 0 0 2.4.15 30.52 30.52 0 0 0 4.46-.64l2.52-.48a1.13 1.13 0 0 0 .83-.41.9.9 0 0 0-.14-1 3.53 3.53 0 0 0-1.62-1.06 30.88 30.88 0 0 0-4.67-1.48 1.67 1.67 0 0 1-.73-.3c-.32-.28-.38-.75-.6-1.11a1.87 1.87 0 0 0-2-.77c-.73.14-1.78.63-2 1.43a15.49 15.49 0 0 0 .08 3.47Z" fill="#f9c6d6"/><path d="M94.11 231.71a1.5 1.5 0 0 0-1.46.41c-.42.61.12 1.59-.37 2.14a1.45 1.45 0 0 1-1.11.33h-2.78a8.77 8.77 0 0 1-2.23-.18.92.92 0 0 0-.52-.06.65.65 0 0 0-.47.55 1.6 1.6 0 0 0 .11.75 5.09 5.09 0 0 0 .77 1.41 1.12 1.12 0 0 0 .34.31 1.08 1.08 0 0 0 .5.08c1.65 0 3.3.06 5-.07 1.15-.08 2.29-.24 3.43-.34a14.36 14.36 0 0 0 4.86-.84 1.59 1.59 0 0 0 .93-.83 1.19 1.19 0 0 0-.21-1 2.7 2.7 0 0 0-.82-.72 9.8 9.8 0 0 0-2.93-1.27 23.63 23.63 0 0 0-3.04-.67Z" fill="#565056"/><path d="M55.39 231.04v.21c.1 2.22 3 2.28 4.63 2.2a31.8 31.8 0 0 0 4.45-.64l2.53-.48a1.21 1.21 0 0 0 .83-.41.94.94 0 0 0-.14-1 3.49 3.49 0 0 0-1.63-1.06 43 43 0 0 0-4.16-1.36c-1.25-.37-.2-2.09-.06-3a1.06 1.06 0 0 0 0-.56 1 1 0 0 0-.59-.39 7.58 7.58 0 0 0-2.26-.41.71.71 0 0 0-.45.09.78.78 0 0 0-.26.36l-2.41 5.15a3.78 3.78 0 0 0-.48 1.3Z" fill="#f9c6d6"/><path d="M56.45 165.65s-1.8 10.14 1.92 17.74a119.41 119.41 0 0 0 6.53 11.9s-7.74 8.37-7.74 18.93-.2 11-.2 11l4.65 2.35 11.6-32.32s.7-4.58 0-6.13-6.65-19.22-6.65-19.22ZM98.49 124.54c-2.4 0-5-2.56-6.5-6.51-1.68-4.57-.95-8.76 1.7-9.74s5.92 1.74 7.61 6.31c1.69 4.58 1 8.77-1.69 9.75a3.3 3.3 0 0 1-1.12.19Zm-3.68-14.29a1.21 1.21 0 0 0-.38.06c-1.24.46-1.68 3.54-.41 7s3.6 5.49 4.84 5 1.68-3.54.42-7c-1.15-3.06-3.18-5.06-4.47-5.06Z" fill="#473f47"/><path d="M108.03 134.59a1.11 1.11 0 0 1-.85-.4l-8-10.08a1.08 1.08 0 0 1 .18-1.52 1.07 1.07 0 0 1 1.5.17l8 10.08a1.07 1.07 0 0 1-.84 1.74Z" fill="#473f47"/><path d="M93.88 119.65a21.07 21.07 0 0 1 .13 3.19 3.44 3.44 0 0 1-1.42 2 6.9 6.9 0 0 1-2.31 1 1.21 1.21 0 0 0-1.06 1.56v2.73a1.22 1.22 0 0 1-.2.81 1 1 0 0 1-.47.26 2.9 2.9 0 0 1-3.32-1.67c-.3-.6-.64-1.19-1-1.76a6.62 6.62 0 0 1-.63-2.35 13.68 13.68 0 0 1 1.42-7.6 10.57 10.57 0 0 1 3.16-3.8c1.06-.76 3.15-1.91 4.24-.59.54.66.53 1.63 1 2.32.37.5 1 .84 1.11 1.45s-.3 1-.49 1.55a2.75 2.75 0 0 0-.16.9ZM101.89 125.16V125a2.66 2.66 0 0 1 .65-1.7 1.35 1.35 0 0 1 1.69-.24c.22.15.37.38.61.49s.76 0 1 .3.19.52.31.78.47.48.7.73c1.13 1.22-.12 3.4-.57 4.64-.68 1.86-1.33 3.73-1.9 5.63a2.93 2.93 0 0 1-1.92-.37 2.13 2.13 0 0 1-.56-.48 2.77 2.77 0 0 1-.22-2.18 4.76 4.76 0 0 0 .12-1.68 13.93 13.93 0 0 0-.6-1.79c-.17-.49-.31-1.11.08-1.46.13-.12.32-.19.43-.33a.87.87 0 0 0 .14-.49c.06-.6.01-1.12.04-1.69Z" fill="#f9c6d6"/><path d="m79.84 170.03 11.25 25.22-.47 35.87-5.16-.38s-8.83-20.4-3.15-33c0 0-13.64-11.66-18.68-18.3-6.19-8.17-4.79-15-4.79-15Z" fill="#565056"/><path d="M85.05 126.43a17.64 17.64 0 0 1 4 1.42c4.32 2 4.51 5.4 6 9.49a79.1 79.1 0 0 0 3.28 7.64l2.06-12.32 5.78 2.33s.57 18.2-3.67 20.64c-2.73 1.58-6.55-.26-9-1.53-.9-.46-2.39-1.85-3.36-2-1.85-.25-2 1.94-3.6 3.23a26.6 26.6 0 0 0-3.07 2.07 10.18 10.18 0 0 0-2 3.65 13.2 13.2 0 0 0-.4 5.08c.08 1.17.16 2.5-.67 3.31a3.18 3.18 0 0 1-1.68.75 20.08 20.08 0 0 1-6.19-.07 61.9 61.9 0 0 1-12-2.15 31.46 31.46 0 0 1-4.14-1.63 2.58 2.58 0 0 1-.79-.52 2.08 2.08 0 0 1-.48-1c-.53-2.48 1.26-4.78 2.16-7.15.6-1.6.8-3.33 1.35-4.95.6-1.81 1.72-3 2.72-4.6.81-1.26 1.26-2.75 2.07-4.05a79.72 79.72 0 0 1 7.21-9.48 40.16 40.16 0 0 1 5.14-5.29 12.1 12.1 0 0 1 7.73-3 10 10 0 0 1 1.55.13Z" fill="#fff"/><path d="M80.52 105.25a8.27 8.27 0 0 0-7.39 5.65c-.45 1.16-.27 2.62-.45 3.87a6 6 0 0 1-1.63 3.78c-1.2 1.1-3 1.27-4.53 1.67-2.45.62-4.89 2.08-5.79 4.45s-.14 4.79-.54 7.16a7.82 7.82 0 0 1-3 4.95c-1.1.81-2.41 1.32-3.55 2.09a9.36 9.36 0 0 0-1.85 13.11l.14.18a12.69 12.69 0 0 1 1.17 1.36 18.65 18.65 0 0 1 .89 1.73 8.38 8.38 0 0 0 7.8 4.19 10.86 10.86 0 0 0 7.89-4.44c1.75-2.33 2.71-5.25 4.83-7.24a41.92 41.92 0 0 1 4.66-3.16c2.53-1.8 4.5-4.69 4.35-7.79-.14-2.58-2.31-5.39-.3-7.68a13.7 13.7 0 0 1 2.48-1.94 5.94 5.94 0 0 0 2.14-2.28c1-2.16-.45-4.89.7-7 .85-1.51 2.75-2.07 4-3.32a5.16 5.16 0 0 0 .83-5.59 6.77 6.77 0 0 0-4.53-3.63 15.92 15.92 0 0 0-4.41-.29l-2.52.08a5.25 5.25 0 0 0-1.39.09Z" fill="#fc682d"/><path d="M63.82 228.25a1.5 1.5 0 0 0-1.46.4c-.42.62.12 1.59-.37 2.15a1.5 1.5 0 0 1-1.12.32h-2.81a9.25 9.25 0 0 1-2.23-.18 1.2 1.2 0 0 0-.53-.07.67.67 0 0 0-.46.56 1.44 1.44 0 0 0 .11.74 5.15 5.15 0 0 0 .77 1.42 1 1 0 0 0 .34.31 1.22 1.22 0 0 0 .5.08c1.65 0 3.3.06 5-.07 1.14-.09 2.28-.25 3.43-.34a14.61 14.61 0 0 0 4.86-.84 1.56 1.56 0 0 0 .92-.84 1.19 1.19 0 0 0-.2-1 2.67 2.67 0 0 0-.82-.71 9.8 9.8 0 0 0-2.93-1.27 22 22 0 0 0-3-.66Z" fill="#565056"/><rect x="168.46" y="119.15" width="77.49" height="63.4" rx="9.12" fill="#fff"/><rect x="33.06" y="23.19" width="77.49" height="63.4" rx="5.95" fill="#68e1fd"/><path fill="#68e1fd" d="M234.96 172.91h-55.12v-40.69h1v39.69h54.12v1z"/><path fill="#68e1fd" d="M189.07 152.53h6.48v19.38h-6.48zM202.29 144.08h6.48v27.83h-6.48zM216.8 138.06h6.48v33.85h-6.48z"/><path fill="url(#f)" d="M43.22 36.32h56.82v3.57H43.22z"/><path fill="url(#g)" d="M43.22 47.02H78.6v3.57H43.22z"/><path fill="url(#h)" d="M43.22 57.72h56.82v3.57H43.22z"/><path fill="url(#i)" d="M43.22 68.42H78.6v3.57H43.22z"/></svg>